HIERARCHY
ROOT Hips
{
	OFFSET -3.958830 18.904000 13.208200
	CHANNELS 6 Xposition Yposition Zposition Zrotation Yrotation Xrotation 
	JOINT LHipJoint
	{
		OFFSET 0.000000 0.000000 0.000000
		CHANNELS 3 Zrotation Yrotation Xrotation
		JOINT LeftUpLeg
		{
			OFFSET 1.800000 -1.400000 0.085000
			CHANNELS 3 Zrotation Yrotation Xrotation
			JOINT LeftLeg
			{
				OFFSET 2.215000 -6.000000 0.000000
				CHANNELS 3 Zrotation Yrotation Xrotation
				JOINT LeftFoot
				{
					OFFSET 2.500000 -6.900000 0.000000
					CHANNELS 3 Zrotation Yrotation Xrotation
					JOINT LeftToeBase
					{
						OFFSET 0.200000 -0.500000 1.950000
						CHANNELS 3 Zrotation Yrotation Xrotation
						End Site
						{
							OFFSET 0.000000 0.000000 0.000000
						}
					}
				}
			}
		}
	}
	JOINT RHipJoint
	{
		OFFSET 0.000000 0.000000 0.000000
		CHANNELS 3 Zrotation Yrotation Xrotation
		JOINT RightUpLeg
		{
			OFFSET -1.800000 -1.400000 0.085000
			CHANNELS 3 Zrotation Yrotation Xrotation
			JOINT RightLeg
			{
				OFFSET -2.215000 -6.000000 0.000000
				CHANNELS 3 Zrotation Yrotation Xrotation
				JOINT RightFoot
				{
					OFFSET -2.500000 -6.900000 0.000000
					CHANNELS 3 Zrotation Yrotation Xrotation
					JOINT RightToeBase
					{
						OFFSET -0.200000 -0.500000 1.950000
						CHANNELS 3 Zrotation Yrotation Xrotation
						End Site
						{
							OFFSET 0.000000 0.000000 0.000000
						}
					}
				}
			}
		}
	}
	JOINT LowerBack
	{
		OFFSET 0.000000 0.000000 0.000000
		CHANNELS 3 Zrotation Yrotation Xrotation
		JOINT Spine
		{
			OFFSET -0.087000 1.940000 -0.288900
			CHANNELS 3 Zrotation Yrotation Xrotation
			JOINT Spine1
			{
				OFFSET 0.000000 1.950000 0.060000
				CHANNELS 3 Zrotation Yrotation Xrotation
				JOINT Neck
				{
					OFFSET 0.000000 0.000000 0.000000
					CHANNELS 3 Zrotation Yrotation Xrotation
					JOINT Neck1
					{
						OFFSET 0.000000 1.600000 0.340000
						CHANNELS 3 Zrotation Yrotation Xrotation
						JOINT Head
						{
							OFFSET 0.000000 1.667000 -0.240000
							CHANNELS 3 Zrotation Yrotation Xrotation
							End Site
							{
								OFFSET 0.000000 0.000000 0.000000
							}
						}
					}
				}
				JOINT LeftShoulder
				{
					OFFSET 0.000000 0.000000 0.000000
					CHANNELS 3 Zrotation Yrotation Xrotation
					JOINT LeftArm
					{
						OFFSET 2.700000 1.550000 -0.730000
						CHANNELS 3 Zrotation Yrotation Xrotation
						JOINT LeftForeArm
						{
							OFFSET 5.450000 0.000000 0.000000
							CHANNELS 3 Zrotation Yrotation Xrotation
							JOINT LeftHand
							{
								OFFSET 3.450000 0.000000 0.000000
								CHANNELS 3 Zrotation Yrotation Xrotation
								JOINT LeftHandIndex1
								{
									OFFSET 0.750000 0.000000 0.000000
									CHANNELS 3 Zrotation Yrotation Xrotation
									End Site
									{
										OFFSET 0.000000 0.000000 0.000000
									}
								}
							}
						}
					}
				}
				JOINT RightShoulder
				{
					OFFSET 0.000000 0.000000 0.000000
					CHANNELS 3 Zrotation Yrotation Xrotation
					JOINT RightArm
					{
						OFFSET -2.700000 1.550000 -0.730000
						CHANNELS 3 Zrotation Yrotation Xrotation
						JOINT RightForeArm
						{
							OFFSET -5.450000 0.000000 0.000000
							CHANNELS 3 Zrotation Yrotation Xrotation
							JOINT RightHand
							{
								OFFSET -3.450000 0.000000 0.000000
								CHANNELS 3 Zrotation Yrotation Xrotation
								JOINT RightHandIndex1
								{
									OFFSET -0.750000 0.000000 0.000000
									CHANNELS 3 Zrotation Yrotation Xrotation
									End Site
									{
										OFFSET 0.000000 0.000000 0.000000
									}
								}
							}
						}
					}
				}
			}
		}
	}
}
MOTION
Frames: 13
Frame Time: 0.016667
0.697210 17.602870 -0.968730 0.511919 7.069822 4.776851 -15.430888 13.553119 2.931426 1.130657 -1.903273 -14.763045 -4.127891 4.128954 6.367791 -1.339314 4.437096 3.539045 -0.816430 -1.149930 -0.738300 18.072267 -10.643392 2.037094 -12.774040 1.358962 -19.780793 5.608489 -6.142706 19.733939 0.684097 -4.349315 3.085679 -0.034000 1.672610 0.029350 -3.017600 -2.950325 -6.265775 1.136290 -0.987653 0.406498 4.653092 -1.608216 6.397034 -1.989300 -2.088966 -4.921992 -4.261320 10.864108 20.184259 -5.059480 10.042480 9.869310 -14.732946 0.229225 1.626353 -29.652830 -5.681006 -3.297010 57.570892 -51.062456 -26.843534 -4.901433 2.163782 -0.051020 1.219480 -1.199100 0.024400 19.608059 1.001688 0.679122 37.280111 5.511657 -9.496536 -44.960373 48.607430 -17.919703 1.188509 -1.238974 -1.144910 0.765350 0.931240 -0.167160 
0.698040 17.603700 -0.967710 0.496840 6.746274 4.720536 -15.428758 13.552062 2.926936 1.125592 -1.880279 -14.677147 -4.101215 4.131422 6.387739 -1.337811 4.439870 3.538206 -0.817100 -1.147700 -0.736230 18.073582 -10.646498 2.041019 -12.794996 1.352198 -19.674417 5.646554 -6.113500 19.498138 0.684458 -4.336782 3.090980 -0.033340 1.670820 0.031310 -3.018412 -2.938030 -6.265806 1.083675 -0.888438 0.389766 4.896462 -1.573069 6.528553 -2.077630 -2.026011 -4.966391 -4.155339 10.682802 20.275306 -5.231450 10.032120 9.825330 -14.459995 0.074206 1.654740 -28.644680 -5.392824 -3.302848 55.510339 -51.976892 -26.094835 -4.896278 2.177132 -0.052520 1.222080 -1.196120 0.022950 19.511419 1.140651 0.722946 37.073748 5.591420 -9.460182 -44.775509 48.621737 -17.861769 1.187997 -1.238475 -1.143270 0.764810 0.930220 -0.167420 
0.698730 17.604450 -0.966250 0.480471 6.405908 4.667273 -15.426208 13.551070 2.921673 1.110634 -1.857382 -14.596670 -4.054928 4.132615 6.420973 -1.334840 4.438312 3.537914 -0.819250 -1.144660 -0.734770 18.075479 -10.650255 2.045227 -12.808030 1.346948 -19.590629 5.672123 -6.082627 19.292154 0.686519 -4.324738 3.095781 -0.032310 1.667750 0.031080 -3.020472 -2.924126 -6.264809 1.034867 -0.791168 0.366067 5.138367 -1.543217 6.663644 -2.165373 -1.961991 -5.010745 -4.046269 10.513824 20.354728 -5.405430 10.044360 9.798370 -14.179696 -0.082986 1.681984 -27.626236 -5.070762 -3.309565 53.000019 -52.973649 -25.147486 -4.892602 2.199704 -0.057230 1.224800 -1.194140 0.019500 19.406306 1.279147 0.764947 36.887154 5.679907 -9.419620 -44.571213 48.647183 -17.803552 1.189049 -1.237993 -1.140950 0.763360 0.929100 -0.167400 
0.699240 17.605540 -0.964590 0.454592 6.056733 4.605203 -15.423510 13.551210 2.916289 1.109882 -1.834027 -14.510718 -4.014604 4.136430 6.463801 -1.329581 4.438595 3.538246 -0.819460 -1.141890 -0.730410 18.077299 -10.655168 2.049363 -12.797460 1.346187 -19.522490 5.674958 -6.052360 19.131071 0.686513 -4.313047 3.101046 -0.033120 1.664400 0.033220 -3.022492 -2.909957 -6.264397 0.997392 -0.697128 0.351150 5.378634 -1.519391 6.799128 -2.246242 -1.899906 -5.062673 -3.941549 10.333252 20.456198 -5.595580 10.056950 9.774600 -13.917877 -0.268792 1.712758 -26.592990 -4.722000 -3.309617 50.033156 -53.984773 -23.979533 -4.890220 2.233691 -0.060290 1.227010 -1.190230 0.017590 19.306035 1.443600 0.818870 36.694281 5.759766 -9.392971 -44.318113 48.683102 -17.729996 1.190638 -1.237643 -1.137050 0.760990 0.925970 -0.167360 
0.699910 17.606400 -0.962950 0.441742 5.734984 4.535531 -15.422553 13.555923 2.911804 1.095438 -1.812857 -14.432602 -3.961062 4.141361 6.542838 -1.326309 4.436054 3.537030 -0.816630 -1.136750 -0.723100 18.076901 -10.658598 2.053100 -12.807102 1.341620 -19.463868 5.689929 -6.035672 19.015601 0.683687 -4.302874 3.104542 -0.033250 1.655520 0.034360 -3.019254 -2.907327 -6.265752 0.929258 -0.620179 0.356054 5.650058 -1.513783 6.925570 -2.329179 -1.848686 -5.121887 -3.862320 10.154629 20.596680 -5.790670 10.068020 9.681420 -13.651139 -0.464781 1.750943 -25.605593 -4.383504 -3.281334 46.651206 -54.924761 -22.584325 -4.886522 2.278707 -0.058720 1.224770 -1.183040 0.014990 19.207836 1.624633 0.878084 36.467739 5.828630 -9.380308 -44.020936 48.743993 -17.636282 1.191751 -1.235361 -1.132640 0.758030 0.921840 -0.169570 
0.700280 17.607000 -0.961380 0.442003 5.440834 4.476486 -15.422514 13.560786 2.909555 1.084810 -1.790923 -14.345147 -3.942911 4.148041 6.582107 -1.325338 4.436646 3.535590 -0.812030 -1.129950 -0.716290 18.076104 -10.660112 2.054701 -12.813582 1.338197 -19.435960 5.678409 -6.018606 18.951243 0.680769 -4.293957 3.108733 -0.031290 1.647930 0.034320 -3.014298 -2.910466 -6.267112 0.850055 -0.565152 0.356025 5.908535 -1.528275 7.051621 -2.418453 -1.812506 -5.179541 -3.811103 9.979302 20.727349 -5.962600 10.038030 9.566050 -13.391601 -0.662703 1.785406 -24.611404 -4.068665 -3.201258 42.820467 -55.728926 -20.918514 -4.886134 2.334264 -0.055440 1.222440 -1.176450 0.014340 19.129093 1.814659 0.938445 36.247358 5.889797 -9.378402 -43.733193 48.846068 -17.565646 1.190039 -1.232157 -1.130160 0.757700 0.917180 -0.171830 
0.700750 17.607110 -0.959520 0.433888 5.177074 4.431631 -15.422485 13.565325 2.907714 1.101803 -1.770103 -14.264197 -3.960384 4.159722 6.605377 -1.324273 4.442006 3.533361 -0.807830 -1.123460 -0.712030 18.075673 -10.659847 2.055691 -12.805450 1.337400 -19.434761 5.660233 -6.004894 18.922834 0.678298 -4.288470 3.111477 -0.028850 1.643660 0.035830 -3.010089 -2.916840 -6.267858 0.790399 -0.538973 0.345116 6.157254 -1.570579 7.163207 -2.513900 -1.782835 -5.231310 -3.771676 9.806223 20.825552 -6.111620 9.968510 9.474880 -13.129062 -0.841549 1.819101 -23.671359 -3.820172 -3.049712 38.603137 -56.320138 -18.989967 -4.891797 2.400447 -0.053520 1.222190 -1.171420 0.014910 19.060300 1.983828 0.985539 36.010265 5.947153 -9.372599 -43.372590 49.003906 -17.478174 1.186936 -1.230432 -1.127750 0.757510 0.913290 -0.172420 
0.701120 17.606900 -0.957630 0.433046 4.944152 4.406993 -15.422713 13.569985 2.906560 1.120602 -1.753767 -14.197040 -3.994374 4.174041 6.623699 -1.317263 4.448919 3.533637 -0.804450 -1.118470 -0.710370 18.075244 -10.657923 2.056402 -12.805993 1.337671 -19.477657 5.643273 -5.998138 18.945578 0.676424 -4.286864 3.113649 -0.028270 1.644280 0.038760 -3.005836 -2.927161 -6.268499 0.727875 -0.540228 0.321984 6.398326 -1.638024 7.266882 -2.618282 -1.767385 -5.296486 -3.755123 9.641351 20.885038 -6.191290 9.847130 9.473670 -12.866762 -1.027236 1.874292 -22.815836 -3.614657 -2.851468 34.223900 -56.686799 -16.920042 -4.900779 2.472905 -0.056070 1.223570 -1.168420 0.018820 19.010579 2.166096 1.037100 35.760466 5.974518 -9.379761 -43.012374 49.235397 -17.417926 1.184950 -1.230385 -1.123490 0.757530 0.908500 -0.169090 
0.701330 17.606550 -0.956130 0.442194 4.739244 4.387174 -15.423960 13.575136 2.907839 1.142941 -1.736658 -14.118815 -4.059553 4.189060 6.602802 -1.306538 4.453969 3.533322 -0.798290 -1.109730 -0.708850 18.074000 -10.654353 2.055660 -12.812114 1.337522 -19.553859 5.613747 -5.995832 19.029950 0.672934 -4.286275 3.114430 -0.026850 1.642110 0.041900 -2.999188 -2.943032 -6.270774 0.651163 -0.567050 0.301472 6.628736 -1.728855 7.374913 -2.717185 -1.762342 -5.376511 -3.758668 9.492031 20.957877 -6.207800 9.693010 9.461220 -12.613864 -1.232772 1.949511 -22.057747 -3.460218 -2.626345 29.825882 -56.819184 -14.786190 -4.906932 2.545883 -0.059110 1.222080 -1.163500 0.023740 18.960290 2.372644 1.093769 35.509633 6.004318 -9.394805 -42.592701 49.456312 -17.330576 1.185037 -1.231790 -1.115970 0.755800 0.901950 -0.164420 
0.701460 17.606260 -0.954860 0.459249 4.550537 4.366971 -15.425445 13.581591 2.909680 1.154220 -1.721048 -14.054228 -4.126053 4.208529 6.613484 -1.293743 4.451698 3.531114 -0.790870 -1.097010 -0.705950 18.072211 -10.650760 2.055508 -12.829779 1.335750 -19.659358 5.591547 -6.002479 19.161713 0.669094 -4.286158 3.113107 -0.025280 1.633300 0.042500 -2.991670 -2.961217 -6.274769 0.574239 -0.610038 0.297232 6.842551 -1.831927 7.472859 -2.807803 -1.768542 -5.463809 -3.783313 9.347223 21.054802 -6.213070 9.544700 9.413200 -12.364403 -1.434733 2.033773 -21.389857 -3.360866 -2.377968 25.414825 -56.763586 -12.609634 -4.908632 2.616656 -0.062810 1.216280 -1.156530 0.025380 18.896586 2.582386 1.149931 35.287750 6.047754 -9.408513 -42.134812 49.651226 -17.215434 1.188935 -1.232846 -1.105080 0.750850 0.894510 -0.159990 
0.701870 17.606460 -0.954060 0.464795 4.375427 4.341238 -15.426576 13.589929 2.911818 1.165719 -1.704818 -13.991034 -4.166865 4.222749 6.624173 -1.283366 4.447297 3.527995 -0.785890 -1.086850 -0.704240 18.070486 -10.648983 2.054846 -12.822775 1.336862 -19.785759 5.529448 -6.007323 19.347370 0.664927 -4.284599 3.111053 -0.025150 1.622740 0.042350 -2.984956 -2.979737 -6.279973 0.536837 -0.673766 0.313568 7.022167 -1.949095 7.561703 -2.881399 -1.788797 -5.558506 -3.834039 9.211610 21.175716 -6.243270 9.412930 9.335390 -12.147537 -1.650269 2.125364 -20.785659 -3.280031 -2.120909 21.056580 -56.561568 -10.450752 -4.909224 2.679429 -0.063700 1.208810 -1.148510 0.024820 18.830286 2.807443 1.210987 35.074540 6.099191 -9.431321 -41.596573 49.826925 -17.054339 1.193213 -1.231268 -1.095320 0.746220 0.889770 -0.156910 
0.701810 17.606820 -0.953080 0.487110 4.214793 4.329148 -15.428613 13.598992 2.914665 1.159463 -1.692163 -13.933926 -4.199593 4.233628 6.634640 -1.276556 4.445742 3.523925 -0.781040 -1.078500 -0.703540 18.068304 -10.645687 2.053143 -12.823291 1.339417 -19.939747 5.450075 -6.013457 19.562536 0.662185 -4.285994 3.108496 -0.024320 1.614470 0.043940 -2.976386 -3.002923 -6.283936 0.476161 -0.751396 0.317314 7.186899 -2.075335 7.643444 -2.950294 -1.804342 -5.645861 -3.877233 9.083895 21.276286 -6.261980 9.261920 9.260280 -11.935688 -1.851226 2.209190 -20.274587 -3.273617 -1.840736 16.794998 -56.134659 -8.322359 -4.911991 2.735023 -0.063930 1.203750 -1.142280 0.024320 18.760517 3.011784 1.261196 34.889736 6.166113 -9.443571 -40.962796 49.979037 -16.842184 1.195446 -1.231193 -1.087030 0.741590 0.886670 -0.154610 
0.701340 17.607470 -0.952070 0.504175 4.079077 4.319018 -15.431004 13.608779 2.917928 1.159655 -1.680642 -13.881476 -4.234080 4.244464 6.643579 -1.270878 4.444760 3.518007 -0.777400 -1.072480 -0.703690 18.065698 -10.641658 2.051534 -12.812557 1.340702 -20.089693 5.368458 -6.020976 19.773451 0.659017 -4.286519 3.105054 -0.025610 1.605580 0.046680 -2.966981 -3.028842 -6.288863 0.422805 -0.851640 0.323078 7.328554 -2.219890 7.724104 -3.001605 -1.819743 -5.745651 -3.921135 8.951077 21.385682 -6.283200 9.098430 9.169890 -11.736403 -2.073826 2.301957 -19.888343 -3.300791 -1.579358 12.811472 -55.488702 -6.334358 -4.913100 2.782322 -0.062480 1.197670 -1.135820 0.022200 18.668720 3.229080 1.320361 34.744229 6.238082 -9.465257 -40.237714 50.105978 -16.584299 1.198218 -1.230520 -1.078170 0.735790 0.886290 -0.152790 
